# xmcd
#
# Track frame offsets:
#	150
#	15683
#	34528
#	54196
#	71908
#	88908
#	106158
#	119883
#	133433
#	147833
#	163108
#	180733
#	200183
#	219708
#	237358
#	259358
#
# Disc length: 3628 seconds
#
# Revision: 7
# Processed by: cddbd v1.5.2PL0 Copyright (c) Steve Scherf et al.
# Submitted via: EZCDAudioConverter 2.1.5.1
#
DISCID=000e2a10
DTITLE=Various Artist - Nashville Chicks CD2
DYEAR=2005
DGENRE=New Country
TTITLE0=Sherrie Austin - Lucky In Love
TTITLE1=K. T. Oslin - 80's Ladies
TTITLE2=Patti Scialfa - State of Grace
TTITLE3=Gretchen Peters - On A Bus To St. Cloud
TTITLE4=Martina McBride - Wild Angels
TTITLE5=Pam Tillis - The River And The Highway
TTITLE6=Stephanie bentley - Who's That Girl
TTITLE7=Jill Morris - Limbo
TTITLE8=Mindy McCready - Guys Do It All The Time
TTITLE9=Deana Carter - We Danced Anyway
TTITLE10=Tift Merrit - Stray Paper
TTITLE11=Kellie Coffee - At The End Of The Day
TTITLE12=Trisha Yearwood - Walkaway Joe
TTITLE13=Michelle Wright - New Kind of Love
TTITLE14=Lee Ann Womack - I Hope You Dance
TTITLE15=Patty Loveless - She Drew A Broken Heart
EXTD=
EXTT0=
EXTT1=
EXTT2=
EXTT3=
EXTT4=
EXTT5=
EXTT6=
EXTT7=
EXTT8=
EXTT9=
EXTT10=
EXTT11=
EXTT12=
EXTT13=
EXTT14=
EXTT15=
PLAYORDER=
